<?xml version="1.0" standalone="no"?>
<!DOCTYPE svg PUBLIC "-//W3C//DTD SVG 20010904//EN"
 "http://www.w3.org/TR/2001/REC-SVG-20010904/DTD/svg10.dtd">
<svg version="1.0" xmlns="http://www.w3.org/2000/svg"
 width="512.000000pt" height="512.000000pt" viewBox="0 0 512.000000 512.000000"
 preserveAspectRatio="xMidYMid meet">
<metadata>
Created by potrace 1.14, written by Peter Selinger 2001-2017
</metadata>
<g transform="translate(0.000000,512.000000) scale(0.100000,-0.100000)"
fill="#000000" stroke="none">
<path d="M660 4761 c-149 -40 -280 -173 -305 -311 -3 -19 -8 -44 -10 -55 -2
-11 -4 -313 -4 -671 l-1 -652 -77 -4 c-117 -6 -193 -52 -239 -144 -18 -38 -19
-72 -19 -1219 l0 -1180 22 -40 c31 -57 82 -103 141 -125 51 -19 87 -20 1698
-20 1799 0 1691 -3 1711 57 14 40 -8 156 -41 222 -48 94 -151 182 -251 213
-52 17 -86 20 -235 21 l-145 2 0 255 0 255 508 0 c279 0 508 -2 508 -5 1 -3 2
-188 3 -411 l2 -406 28 -57 c32 -65 95 -118 161 -135 23 -6 194 -10 405 -11
433 -1 445 1 525 84 29 30 55 68 62 91 9 30 12 259 10 950 -2 866 -3 912 -21
945 -50 94 -123 140 -238 147 l-78 6 0 901 c0 523 -4 925 -10 959 -13 83 -56
163 -120 228 -66 66 -144 107 -231 119 -38 6 -815 9 -1879 9 -1696 0 -1819 -2
-1880 -18z m3770 -166 c60 -19 119 -71 150 -131 l25 -49 3 -927 3 -928 -228
-1 c-125 0 -241 -3 -258 -5 -16 -3 -55 -21 -85 -42 -74 -50 -111 -121 -114
-219 l-2 -68 -937 -3 -937 -2 -1 302 c-1 167 -1 306 0 310 0 3 -6 28 -14 54
l-14 48 430 429 c257 257 432 440 436 455 15 60 -49 122 -106 101 -14 -6 -220
-203 -457 -440 -420 -420 -431 -430 -458 -419 -18 6 -252 10 -692 10 l-665 0
3 673 3 672 25 49 c14 27 43 63 65 81 84 69 -63 64 1955 64 1532 0 1832 -3
1870 -14z m-2583 -1719 l28 -24 1 -989 c1 -543 -1 -993 -3 -999 -3 -7 -254
-11 -853 -10 l-850 0 0 981 c0 662 3 992 11 1012 5 17 20 35 32 41 15 7 277
11 814 11 l792 1 28 -24z m3074 -515 l29 -29 0 -739 0 -739 -424 0 c-421 0
-424 0 -428 20 -2 12 -3 343 -3 736 1 764 0 745 50 769 12 6 164 10 383 10
l364 1 29 -29z m-999 -323 c2 -7 4 -123 4 -258 l-1 -244 -938 -1 -937 0 0 258
0 257 934 0 c738 0 935 -3 938 -12z m-1707 -928 l0 -255 -82 -1 -83 -1 0 256
0 257 83 -1 82 0 0 -255z m515 0 l0 -256 -170 0 -170 -1 0 256 0 256 170 0
170 0 0 -255z m-864 -429 c16 -1 14 -90 -2 -122 -7 -14 -26 -31 -41 -38 -21
-9 -232 -11 -815 -9 l-787 3 -23 22 c-17 17 -23 37 -26 85 l-4 63 843 -2 c464
-1 849 -2 855 -2z m1389 -20 c70 -31 135 -98 135 -141 0 -7 -212 -10 -679 -10
l-680 0 10 32 c5 18 9 58 9 88 l0 55 578 -1 c572 -1 578 -1 627 -23z m1695
-33 c0 -46 -5 -62 -24 -85 l-24 -28 -361 -3 c-445 -4 -441 -5 -445 118 -1 36
2 46 17 50 10 3 202 5 428 5 l409 0 0 -57z"/>
<path d="M2348 4424 c-48 -25 -55 -95 -13 -134 24 -23 30 -23 226 -23 198 0
201 0 224 24 35 35 37 78 5 119 l-19 25 -199 1 c-149 1 -205 -2 -224 -12z"/>
<path d="M3294 3915 c-16 -7 -224 -208 -461 -447 -409 -409 -433 -436 -433
-469 0 -69 72 -112 126 -75 26 19 851 844 870 870 46 66 -27 154 -102 121z"/>
<path d="M915 2041 c-52 -33 -393 -384 -400 -412 -15 -61 51 -119 108 -95 15
6 111 94 213 196 l186 185 -2 45 c-1 25 -2 53 -1 62 0 10 -13 21 -31 27 -40
14 -38 14 -73 -8z"/>
<path d="M1439 2048 c-33 -12 -397 -377 -407 -408 -21 -61 32 -124 94 -112 33
6 420 393 426 426 13 67 -48 118 -113 94z"/>
<path d="M4613 1820 c-31 -13 -293 -278 -294 -298 -3 -38 4 -58 24 -79 27 -28
64 -34 97 -17 30 15 279 267 281 283 1 6 2 17 3 24 5 31 -18 70 -50 83 -18 8
-35 14 -36 13 -2 0 -13 -4 -25 -9z"/>
<path d="M2531 1869 c-35 -14 -50 -39 -51 -81 0 -28 6 -41 26 -57 51 -41 119
-18 138 46 10 32 -18 79 -55 92 -18 6 -32 11 -33 10 -1 0 -12 -5 -25 -10z"/>
</g>
</svg>
